<?xml version="1.0" encoding="UTF-8" standalone="no"?>
<!-- Created with Inkscape (http://www.inkscape.org/) -->

<svg
   width="215.51471mm"
   height="264.58334mm"
   viewBox="0 0 215.51471 264.58334"
   version="1.1"
   id="svg5"
   xml:space="preserve"
   sodipodi:docname="my_backgroung_02.svg"
   inkscape:version="1.2.2 (732a01da63, 2022-12-09)"
   xmlns:inkscape="http://www.inkscape.org/namespaces/inkscape"
   xmlns:sodipodi="http://sodipodi.sourceforge.net/DTD/sodipodi-0.dtd"
   xmlns="http://www.w3.org/2000/svg"
   xmlns:svg="http://www.w3.org/2000/svg"><sodipodi:namedview
     id="namedview7"
     pagecolor="#ffffff"
     bordercolor="#000000"
     borderopacity="0.25"
     inkscape:showpageshadow="2"
     inkscape:pageopacity="0.0"
     inkscape:pagecheckerboard="0"
     inkscape:deskcolor="#d1d1d1"
     inkscape:document-units="mm"
     showgrid="false"
     inkscape:lockguides="true"
     inkscape:zoom="0.89263468"
     inkscape:cx="364.09072"
     inkscape:cy="526.53119"
     inkscape:window-width="2560"
     inkscape:window-height="1369"
     inkscape:window-x="1912"
     inkscape:window-y="-8"
     inkscape:window-maximized="1"
     inkscape:current-layer="layer1" /><defs
     id="defs2" /><g
     inkscape:label="Layer 1"
     inkscape:groupmode="layer"
     id="layer1"
     transform="translate(4.4828262,-7.8800624)"><path
       id="Selection #2"
       fill="none"
       stroke="#000000"
       stroke-width="0.345369"
       d="m 105.17342,139.99115 c 1.9309,-0.64561 6.08211,-0.35205 8.28894,-0.35205 0,0 16.92281,0 16.92281,0 0,0 56.63949,0 56.63949,0 0,0 18.30472,0 18.30472,0 3.83326,0.005 5.51855,1.69212 5.52564,5.52566 0,0 0,121.56791 0,121.56791 0,0.72173 0.0415,1.7476 -0.2069,2.41766 -1.16068,3.1496 -5.23917,4.13062 -7.73644,2.02025 0,0 -17.61372,-17.56172 -17.61372,-17.56172 -1.28801,-1.2881 -5.15265,-5.491 -6.56185,-6.00919 -0.6699,-0.25426 -1.69529,-0.20849 -2.41739,-0.20849 0,0 -56.63947,0 -56.63947,0 0,0 -10.0157,0 -10.0157,0 -1.19142,0 -3.4776,0.15663 -4.48992,-0.35184 -2.16178,-1.08776 -2.41398,-2.67661 -2.41734,-4.8282 0,0 0,-76.67097 0,-76.67097 0,0 0,-17.61331 0,-17.61331 0,-3.42593 -0.80801,-5.76083 2.41734,-7.93682 z m 96.01119,8.97248 c 0,0 -88.75809,0 -88.75809,0 0,0 0,89.1039 0,89.1039 0,0 68.38154,0 68.38154,0 0,0 2.41758,0.20875 2.41758,0.20875 0,0 5.18062,4.62815 5.18062,4.62815 0,0 12.77835,12.43277 12.77835,12.43277 0,0 0,-106.3718 0,-106.3718 z"
       style="fill:#808080" /><path
       id="Selection #1"
       fill="none"
       stroke="#000000"
       stroke-width="0.345369"
       d="m 100.3385,182.11862 c 0,0 -39.025954,0 -39.025954,0 -1.54033,0 -7.97788,0.16193 -8.97943,-0.2077 -1.04644,-0.38568 -2.16889,-1.50958 -2.5557,-2.55537 -0.24506,-0.66712 -0.20722,-1.69966 -0.20722,-2.41805 0,0 0,-78.742904 0,-78.742904 0,0 0,-18.64966 0,-18.64966 0.004,-3.7679 1.41253,-5.17356 5.18045,-5.18044 0,0 79.088364,0 79.088364,0 0,0 18.30406,0 18.30406,0 0.722,0 1.74758,-0.0417 2.4175,0.20701 2.49378,0.91863 3.10481,2.95979 3.10865,5.31871 0,0 0,57.330164 0,57.330164 0,0 -9.67055,0 -9.67055,0 0,0 0,-53.531304 0,-53.531304 0,0 -88.758294,0 -88.758294,0 0,0 0,89.103694 0,89.103694 0,0 41.098334,0 41.098334,0 0,0 0,9.32471 0,9.32471 z"
       style="fill:#b3b3b3" /><path
       id="Selection"
       fill="none"
       stroke="#000000"
       stroke-width="0.345369"
       d="m 47.152666,115.8089 c 0,0 -39.3714632,0 -39.3714632,0 -1.574837,0 -8.31637099,0.16563 -9.324799,-0.20585 -1.046451,-0.38449 -2.168875,-1.50929 -2.55565,-2.55558 -0.245216,-0.66649 -0.207328,-1.69913 -0.207328,-2.41753 0,0 0,-78.742944 0,-78.742944 0,0 0,-18.649624 0,-18.649624 0.0045,-3.767924 1.412521,-5.173555 5.18047101,-5.180447 0,0 79.08828919,0 79.08828919,0 0,0 18.30412,0 18.30412,0 0.72181,0 1.747574,-0.04154 2.417764,0.207221 2.49314,0.918671 3.10481,2.959791 3.10827,5.318589 0,0 0,58.366441 0,58.366441 0,0 -9.670414,0 -9.670414,0 0,0 0,-54.567434 0,-54.567434 0,0 -88.7583302,0 -88.7583302,0 0,0 0,89.103868 0,89.103868 0,0 41.7890302,0 41.7890302,0 0,0 0,9.32456 0,9.32456 z"
       style="fill:#e6e6e6" /></g></svg>
