<?xml version="1.0" encoding="UTF-8" standalone="no"?>
<!-- Created with Inkscape (http://www.inkscape.org/) -->

<svg
   width="52.8339mm"
   height="64.863525mm"
   viewBox="0 0 52.8339 64.863525"
   version="1.1"
   id="svg5"
   xml:space="preserve"
   inkscape:version="1.2.2 (732a01da63, 2022-12-09)"
   sodipodi:docname="my_backgroung.svg"
   xmlns:inkscape="http://www.inkscape.org/namespaces/inkscape"
   xmlns:sodipodi="http://sodipodi.sourceforge.net/DTD/sodipodi-0.dtd"
   xmlns="http://www.w3.org/2000/svg"
   xmlns:svg="http://www.w3.org/2000/svg"><sodipodi:namedview
     id="namedview7"
     pagecolor="#ffffff"
     bordercolor="#000000"
     borderopacity="0.25"
     inkscape:showpageshadow="2"
     inkscape:pageopacity="0.0"
     inkscape:pagecheckerboard="0"
     inkscape:deskcolor="#d1d1d1"
     inkscape:document-units="mm"
     showgrid="false"
     inkscape:lockguides="true"
     inkscape:zoom="0.89263468"
     inkscape:cx="143.39573"
     inkscape:cy="285.67118"
     inkscape:window-width="2560"
     inkscape:window-height="1369"
     inkscape:window-x="1912"
     inkscape:window-y="-8"
     inkscape:window-maximized="1"
     inkscape:current-layer="layer1" /><defs
     id="defs2" /><g
     inkscape:label="Layer 1"
     inkscape:groupmode="layer"
     id="layer1"
     transform="translate(-74.065092,-74.867619)"><path
       id="Selection #2"
       fill="none"
       stroke="#000000"
       stroke-width="0.0846667"
       d="m 100.94764,107.25533 c 0.47328,-0.15833 1.49097,-0.0864 2.03199,-0.0864 0,0 4.14867,0 4.14867,0 0,0 13.88533,0 13.88533,0 0,0 4.48734,0 4.48734,0 0.9398,0.002 1.35297,0.41487 1.35466,1.35467 0,0 0,29.80266 0,29.80266 0,0.17695 0.0102,0.42841 -0.0508,0.59267 -0.28448,0.77216 -1.28439,1.01261 -1.89653,0.4953 0,0 -4.318,-4.3053 -4.318,-4.3053 -0.31581,-0.31581 -1.26323,-1.3462 -1.60867,-1.4732 -0.16425,-0.061 -0.41571,-0.0508 -0.59266,-0.0508 0,0 -13.88534,0 -13.88534,0 0,0 -2.45533,0 -2.45533,0 -0.2921,0 -0.85259,0.0381 -1.10066,-0.0864 -0.53002,-0.2667 -0.59182,-0.65617 -0.59267,-1.18364 0,0 0,-18.796 0,-18.796 0,0 0,-4.318 0,-4.318 0,-0.83989 -0.19812,-1.41224 0.59267,-1.94564 z m 23.53733,2.19964 c 0,0 -21.75934,0 -21.75934,0 0,0 0,21.844 0,21.844 0,0 16.764,0 16.764,0 0,0 0.59267,0.0508 0.59267,0.0508 0,0 1.27,1.13453 1.27,1.13453 0,0 3.13267,3.048 3.13267,3.048 0,0 0,-26.07733 0,-26.07733 z"
       style="fill:#808080" /><path
       id="Selection #1"
       fill="none"
       stroke="#000000"
       stroke-width="0.0846667"
       d="m 99.762302,117.58297 c 0,0 -9.567333,0 -9.567333,0 -0.377613,0 -1.9558,0.0398 -2.201333,-0.0508 -0.25654,-0.0948 -0.531707,-0.36999 -0.626533,-0.62653 -0.06011,-0.16341 -0.0508,-0.41656 -0.0508,-0.59267 0,0 0,-19.303998 0,-19.303998 0,0 0,-4.572 0,-4.572 0.0017,-0.923713 0.346286,-1.268307 1.27,-1.27 0,0 19.388667,0 19.388667,0 0,0 4.48733,0 4.48733,0 0.17695,0 0.42841,-0.01016 0.59267,0.0508 0.61129,0.225213 0.76115,0.725593 0.762,1.303867 0,0 0,14.054661 0,14.054661 0,0 -2.37067,0 -2.37067,0 0,0 0,-13.123328 0,-13.123328 0,0 -21.759331,0 -21.759331,0 0,0 0,21.843998 0,21.843998 0,0 10.075333,0 10.075333,0 0,0 0,2.286 0,2.286 z"
       style="fill:#b3b3b3" /><path
       id="Selection"
       fill="none"
       stroke="#000000"
       stroke-width="0.0846667"
       d="m 86.723636,101.32697 c 0,0 -9.651999,0 -9.651999,0 -0.38608,0 -2.038773,0.0406 -2.286,-0.0508 -0.25654,-0.0948 -0.531706,-0.36999 -0.626533,-0.62653 -0.06011,-0.16341 -0.0508,-0.41656 -0.0508,-0.59267 0,0 0,-19.303997 0,-19.303997 0,0 0,-4.572 0,-4.572 0.0017,-0.923713 0.346286,-1.268306 1.27,-1.27 0,0 19.388665,0 19.388665,0 0,0 4.487333,0 4.487333,0 0.176953,0 0.428413,-0.01016 0.592667,0.0508 0.611291,0.225214 0.761151,0.725594 0.762001,1.303867 0,0 0,14.308665 0,14.308665 0,0 -2.370668,0 -2.370668,0 0,0 0,-13.377332 0,-13.377332 0,0 -21.759332,0 -21.759332,0 0,0 0,21.843998 0,21.843998 0,0 10.244666,0 10.244666,0 0,0 0,2.285999 0,2.285999 z"
       style="fill:#e6e6e6" /></g></svg>
